<svg xmlns="http://www.w3.org/2000/svg" viewBox="0 0 900 600"><defs><linearGradient id="a" x2="1" y2="1"><stop stop-color="#38283a"/><stop offset=".55" stop-color="#1e2840"/><stop offset="1" stop-color="#0b1929"/></linearGradient><radialGradient id="b"><stop stop-color="#f1a751" stop-opacity=".4"/><stop offset="1" stop-color="#f1a751" stop-opacity="0"/></radialGradient></defs><path fill="url(#a)" d="M0 0h900v600H0z"/><circle cx="645" cy="292" r="300" fill="url(#b)"/><path d="M0 405h900v195H0z" fill="#071421" fill-opacity=".62"/><path d="M75 405V205h220v200M340 405V152h220v253M605 405V230h220v175" fill="#10243a" stroke="#f1c762" stroke-opacity=".6" stroke-width="2"/><path d="M75 205l110-85 110 85M340 152l110-92 110 92M605 230l110-74 110 74" fill="none" stroke="#f1c762" stroke-opacity=".65" stroke-width="2"/><g fill="#f1c762"><circle cx="185" cy="293" r="8"/><circle cx="450" cy="245" r="8"/><circle cx="715" cy="305" r="8"/></g><g stroke="#8bcbd2" stroke-opacity=".45"><path d="M105 326h160M370 286h160M635 340h160"/></g><text x="60" y="75" fill="#f3cd73" font-family="monospace" font-size="20" letter-spacing="5">FERIA EMPRESARIAL</text><text x="62" y="106" fill="#bfd1d9" font-family="monospace" font-size="11" letter-spacing="3">I.E.D. JUAN JOSÉ NEIRA</text></svg>
